<mxfile host="app.diagrams.net" modified="2023-10-27T08:56:24.211Z" agent="Mozilla/5.0 (Windows NT 10.0; Win64; x64) AppleWebKit/537.36 (KHTML, like Gecko) Chrome/118.0.0.0 Safari/537.36" version="22.0.8" etag="ORqscQ1fCUvUYEJtH-7d" type="github">
  <diagram name="Seite-1" id="xikOmMtDKbGpDyViqX2l">
    <mxGraphModel>
      <root>
        <mxCell id="0" />
        <mxCell id="1" parent="0" />
      </root>
    </mxGraphModel>
  </diagram>
</mxfile>
